<svg width="20" height="30" viewBox="0 0 20 30" fill="none" xmlns="http://www.w3.org/2000/svg">
<path fill-rule="evenodd" clip-rule="evenodd" d="M12.8894 27.2826C15.243 25.9174 15.22 21.4504 12.8381 17.3054C10.4562 13.1604 6.61732 10.9069 4.26375 12.2722C1.91018 13.6374 1.93316 18.1043 4.31508 22.2493C6.697 26.3944 10.5359 28.6478 12.8894 27.2826ZM11.9331 25.4318C13.69 24.4127 13.6728 21.0784 11.8948 17.9843C10.1169 14.8903 7.25135 13.2082 5.49454 14.2273C3.73773 15.2464 3.75488 18.5807 5.53285 21.6747C7.31082 24.7687 10.1763 26.4508 11.9331 25.4318Z" fill="#34204D"/>
<path fill-rule="evenodd" clip-rule="evenodd" d="M12.9505 2.71827C10.5969 1.35304 6.75806 3.6065 4.37614 7.75152C1.99423 11.8965 1.97125 16.3635 4.32482 17.7287C6.67839 19.0939 10.5173 16.8405 12.8992 12.6955C15.2811 8.55044 15.3041 4.0835 12.9505 2.71827ZM11.8162 4.76958C10.1059 3.77752 7.3164 5.41502 5.58556 8.42704C3.85471 11.4391 3.83801 14.685 5.54826 15.677C7.2585 16.6691 10.0481 15.0316 11.7789 12.0196C13.5097 9.00758 13.5264 5.76163 11.8162 4.76958Z" fill="#9792E3"/>
<path fill-rule="evenodd" clip-rule="evenodd" d="M2.73488 14.9728C2.73488 17.699 6.60074 19.909 11.3695 19.909C16.1383 19.909 20.0042 17.699 20.0042 14.9728C20.0042 12.2466 16.1383 10.0366 11.3695 10.0366C6.60074 10.0366 2.73488 12.2466 2.73488 14.9728ZM4.75569 14.9956C4.75569 17.117 7.76399 18.8368 11.4749 18.8368C15.1859 18.8368 18.1942 17.117 18.1942 14.9956C18.1942 12.8741 15.1859 11.1544 11.4749 11.1544C7.76399 11.1544 4.75569 12.8741 4.75569 14.9956Z" fill="#70C1B3"/>
</svg>
