<svg width="24" height="34" viewBox="0 0 24 34" fill="none" xmlns="http://www.w3.org/2000/svg">
<g id="Group">
<path id="Vector" d="M11.6666 14.5V14H11.1666H8.76751L12.3333 8.65139V12V12.5H12.8333H15.2323L11.6666 17.8486V14.5Z" fill="#34204D" stroke="#34204D"/>
<path id="Vector_2" d="M20.7188 18.5896L20.7191 18.5893C22.0287 16.9922 22.8532 15.0533 23.095 13.0021C23.3328 10.9557 22.9762 8.8842 22.0678 7.03514C21.1499 5.17005 19.7228 3.60288 17.9515 2.51489L17.9507 2.51438C16.1702 1.41591 14.1078 0.833012 12.0015 0.833012H12.0011C9.90077 0.831305 7.84115 1.41266 6.05166 2.51234L6.05146 2.51247C4.27969 3.60008 2.85199 5.16703 1.93351 7.0321L20.7188 18.5896ZM20.7188 18.5896C20.3061 19.0938 19.5842 20.0544 18.9088 21.1216C18.3255 22.0433 17.7493 23.0869 17.4552 23.9997M20.7188 18.5896L21.1057 18.9063C20.304 19.8855 18.2666 22.683 17.8332 24.4997M17.8332 24.4997V23.9997H17.4552M17.8332 24.4997H6.16655H17.8332ZM17.4552 23.9997H6.54462M17.4552 23.9997H6.54462M6.54462 23.9997C6.25037 23.0861 5.67349 22.0419 5.0896 21.1199C4.41358 20.0523 3.69115 19.0916 3.27856 18.5873L3.27832 18.587C1.96935 16.9892 1.14568 15.0498 0.90485 12.9984C0.667638 10.9522 1.02473 8.88092 1.93344 7.03224L6.54462 23.9997ZM16.9806 23.333H16.6524H7.34655H7.0183L6.88778 23.0318C6.54738 22.2463 6.08839 21.4502 5.65344 20.7632C5.08269 19.8631 4.46196 18.9955 3.79417 18.1648C2.56629 16.6659 1.79356 14.8466 1.56746 12.9222L1.56738 12.9215C1.34462 11.002 1.67951 9.05904 2.53201 7.32492L2.53222 7.32448C3.39568 5.57245 4.73751 4.10067 6.40248 3.07939L16.9806 23.333ZM16.9806 23.333L17.1112 23.0318M16.9806 23.333L17.1112 23.0318M17.1112 23.0318C17.4515 22.2465 17.9105 21.4519 18.3456 20.7647L18.3457 20.7645C18.9155 19.8641 19.5359 18.9967 20.2039 18.1665C21.4321 16.6683 22.2054 14.8497 22.4323 12.9257L22.4324 12.925C22.6558 11.0054 22.3216 9.06212 21.4695 7.32756L21.4693 7.32707M17.1112 23.0318L21.4693 7.32707M21.4693 7.32707C20.6064 5.57535 19.2653 4.10365 17.6011 3.08216C15.9261 2.04929 13.9854 1.49972 12.0018 1.49968M21.4693 7.32707L12.0018 1.49968M12.0018 1.49968C10.0252 1.4979 8.08686 2.04473 6.40262 3.0793L12.0018 1.49968Z" fill="#34204D" stroke="#34204D"/>
<path id="Vector_3" d="M6.6665 26.9993C6.6665 26.9109 6.70162 26.8262 6.76413 26.7636C6.82665 26.7011 6.91143 26.666 6.99984 26.666H16.9998C17.0882 26.666 17.173 26.7011 17.2355 26.7636C17.2981 26.8262 17.3332 26.9109 17.3332 26.9993C17.3332 27.0878 17.2981 27.1725 17.2355 27.2351C17.173 27.2976 17.0882 27.3327 16.9998 27.3327H6.99984C6.91143 27.3327 6.82665 27.2976 6.76413 27.2351C6.70162 27.1725 6.6665 27.0878 6.6665 26.9993Z" fill="#34204D" stroke="#34204D"/>
<path id="Vector_4" d="M7.83317 30.6667H7.33317V31.1667V32V32.5H7.83317H16.1665H16.6665V32V31.1667V30.6667H16.1665H7.83317ZM6.6665 30H17.3332V32C17.3332 32.3094 17.2103 32.6062 16.9915 32.825C16.7727 33.0437 16.4759 33.1667 16.1665 33.1667H7.83317C7.52375 33.1667 7.227 33.0437 7.00821 32.825C6.78942 32.6062 6.6665 32.3094 6.6665 32V30Z" fill="#34204D" stroke="#34204D"/>
</g>
</svg>
